Coordinates
version=1
nRows=13
nColumns=36
inDegrees=yes

Units are S.I. units (second, meters, Newtons, ...)
If the header above contains a line with 'inDegrees', this indicates whether rotational values are in degrees (yes) or radians (no).

endheader
time	pelvis_tilt	pelvis_list	pelvis_rotation	pelvis_tx	pelvis_ty	pelvis_tz	hip_flexion_r	hip_adduction_r	hip_rotation_r	knee_angle_r	knee_angle_r_beta	ankle_angle_r	subtalar_angle_r	mtp_angle_r	hip_flexion_l	hip_adduction_l	hip_rotation_l	knee_angle_l	knee_angle_l_beta	ankle_angle_l	subtalar_angle_l	mtp_angle_l	lumbar_extension	lumbar_bending	lumbar_rotation	arm_flex_r	arm_add_r	arm_rot_r	elbow_flex_r	pro_sup_r	arm_flex_l	arm_add_l	arm_rot_l	elbow_flex_l	pro_sup_l
      0.00000000	     -0.10547356	     -2.80855275	     -3.20664462	     -0.91336593	      1.26380314	     -0.09013843	      1.48336847	      3.72724432	     -1.47486662	     10.03120815	      0.17507761	      4.15687260	    -17.63515230	     -6.39458617	     -1.50192301	     -2.48618984	      4.02633541	      5.32754245	      0.09298316	      8.72760753	     -6.85796048	     -6.39458617	     -5.29983155	      1.76492915	     -5.76516646	      0.38197477	    -10.45110749	     21.40817273	     40.88363133	     78.66635725	      6.40407217	    -14.95513782	     25.50325336	     85.74728019	     84.48671240
      0.00416670	     -1.58539384	     -2.56108858	     -2.87694474	     -0.91302875	      1.26186230	     -0.09020674	      3.58624360	      4.02628994	      0.01286889	     11.11375034	      0.19397154	      6.67419769	    -17.38113719	     -6.51960009	      0.63829703	     -2.03583461	      6.05928284	      5.76492301	      0.10061689	      8.31870857	     -7.01283097	     -6.51960009	     -3.15263941	      1.81314745	     -6.46364392	     -0.54444263	    -10.45913598	     20.25862023	     40.50647085	     77.53923692	      6.09981869	    -15.75602338	     25.80309813	     85.74852276	     83.23203561
      0.00833330	     -2.35974616	     -2.05088320	     -2.91380320	     -0.91191647	      1.26291896	     -0.09054476	      4.03924894	      3.63934906	     -0.50522338	     10.31009092	      0.17994503	      6.84276228	    -17.19527341	     -6.56715877	      1.48145851	     -1.60907315	      6.52478431	      5.82344711	      0.10163833	      8.20321813	     -6.93679315	     -6.56715877	     -2.09219447	      1.17685555	     -6.16798868	     -0.52418622	    -10.13713021	     20.08306706	     39.35899203	     77.94218643	      5.87852602	    -15.68839070	     25.60324045	     84.33935535	     83.28286282
      0.01250000	     -2.10129151	     -1.85226947	     -2.76079913	     -0.91087398	      1.26519480	     -0.09016586	      3.46073578	      3.43359431	     -0.67714547	      9.79370607	      0.17093242	      6.91961561	    -16.86660639	     -6.84366838	      0.88667432	     -1.35076665	      7.24938049	      5.31904560	      0.09283486	      7.85568308	     -7.65551634	     -6.84366838	     -2.46941354	      0.92205772	     -5.98390888	     -0.62420947	     -9.76631430	     18.63105137	     38.44662984	     86.30185057	      5.66112783	    -15.58360381	     25.11148452	     82.82042487	     89.46644914
      0.01666670	     -2.07551227	     -1.71281154	     -2.68702245	     -0.90965846	      1.27009927	     -0.08937561	      3.12878832	      3.39112517	     -0.70531615	      9.30268255	      0.16236244	      6.61648616	    -16.71054391	     -6.84770054	      0.67706954	     -1.20553341	      7.38674025	      5.07721224	      0.08861407	      7.81488027	     -7.71422638	     -6.84770054	     -2.56680156	      0.67413871	     -6.00703318	     -0.82664660	     -9.54924517	     18.62131232	     38.34969178	     86.33425308	      4.85628374	    -15.83773571	     25.33271553	     81.89297521	     89.52492367
      0.02083330	     -1.64961030	     -1.68735272	     -2.45587046	     -0.90983392	      1.26570819	     -0.08986347	      2.36680909	      3.41290665	     -0.56638238	      8.82779834	      0.15407415	      6.38507097	    -16.78392314	     -7.07735905	      0.19022790	     -1.13557202	      7.86373246	      4.97823909	      0.08688666	      7.78152521	     -8.29452824	     -7.07735905	     -3.01566556	      0.61245534	     -5.64250472	     -1.08882691	     -9.46327999	     17.91139117	     38.46923800	     88.19078217	      5.04303326	    -15.77688168	     26.15499969	     79.96048727	     92.76524846
      0.02500000	     -1.48864468	     -1.61390628	     -2.35149781	     -0.90969734	      1.26153575	     -0.09077430	      2.09292968	      3.34419269	     -0.30141710	      8.68615731	      0.15160204	      6.24441214	    -17.37329190	     -7.12927758	      0.08015405	     -1.03250903	      8.12490648	      5.01004298	      0.08744175	      8.05701532	     -8.68650102	     -7.12927758	     -3.19671842	      0.49808189	     -5.47891822	     -1.31977710	     -9.65267674	     18.01956360	     39.08718410	     86.87673358	      4.70439135	    -15.96881528	     26.69674516	     79.05902869	     91.34322682
      0.02916670	     -1.31788747	     -1.55380845	     -2.17737855	     -0.91070528	      1.26489327	     -0.09164657	      1.84864268	      3.25131702	     -0.22581453	      8.53869694	      0.14902838	      6.30619298	    -17.49298338	     -7.15640722	      0.00424638	     -0.93117488	      8.48837404	      5.10896721	      0.08916830	      8.25237355	     -9.16438132	     -7.15640722	     -3.33986715	      0.43794265	     -5.52424098	     -1.23083351	     -9.69191128	     18.04908842	     38.95039371	     86.51295991	      4.38314340	    -15.82759225	     26.77076871	     77.59616106	     91.00698464
      0.03333330	     -1.23900746	     -1.51197328	     -2.12274324	     -0.91001029	      1.26384673	     -0.09212788	      1.67584812	      3.19633824	     -0.05201325	      8.36012106	      0.14591164	      5.98946611	    -18.00279167	     -7.20160773	     -0.02622114	     -0.83737046	      8.80144722	      5.16726192	      0.09018573	      8.23364619	     -9.67602236	     -7.20160773	     -3.49392567	      0.41539333	     -5.42489990	     -1.34058995	     -9.84721135	     18.07324751	     39.34459763	     85.01265159	      4.05408359	    -15.75703188	     27.15251090	     76.18852443	     89.71994197
      0.03750000	     -1.30475881	     -1.48263418	     -2.08185438	     -0.90925634	      1.26085504	     -0.09286296	      1.71371443	      3.14126790	      0.14728696	      8.39901188	      0.14659041	      5.92713701	    -18.38269147	     -7.29483957	      0.10005593	     -0.73399495	      9.12608805	      5.27573860	      0.09207901	      8.27666928	    -10.17611492	     -7.29483957	     -3.31142864	      0.41497189	     -5.61151352	     -1.36225584	    -10.02036820	     18.09755064	     39.55394280	     87.45919357	      3.45086264	    -15.59431469	     26.63937084	     74.92194000	     93.77889032
      0.04166670	     -1.26828322	     -1.45913456	     -2.11100380	     -0.90801264	      1.25845346	     -0.09156193	      1.61742278	      3.09634468	      0.25397024	      8.36981733	      0.14608087	      5.89770965	    -18.81942194	     -7.31754862	      0.06491175	     -0.67533866	      9.37161785	      5.34884784	      0.09335501	      8.41792243	    -10.58856534	     -7.31754862	     -3.25577125	      0.36177898	     -5.46202963	     -1.62396101	    -10.13773294	     18.11979136	     39.95421575	     86.61536449	      3.02312911	    -15.50501034	     26.90348181	     73.72042161	     92.88323563
      0.04583330	     -1.20740265	     -1.42503720	     -2.15069222	     -0.90759575	      1.25657523	     -0.09067367	      1.47169419	      3.10200225	      0.45471822	      8.30863758	      0.14501308	      5.98168600	    -19.13033084	     -7.32619403	     -0.03296743	     -0.64646549	      9.43584533	      5.38943320	      0.09406335	      8.67726479	    -10.70632085	     -7.32619403	     -3.24722384	      0.23536198	     -5.41045443	     -1.85140499	    -10.16033531	     18.10994751	     40.42347271	     85.96983630	      2.49427938	    -15.59621964	     26.99447173	     73.00677285	     92.28178727
      0.05000000	     -1.23720822	     -1.43687005	     -2.10069604	     -0.90676240	      1.25609464	     -0.09084283	      1.43625624	      3.14208195	      0.41156167	      8.28487393	      0.14459833	      6.10286023	    -19.31264886	     -7.33410251	     -0.01820899	     -0.66383660	      9.68621951	      5.43652065	      0.09488519	      8.73436667	    -11.12287619	     -7.33410251	     -3.03991728	      0.21899957	     -5.38291986	     -2.09573759	    -10.23977048	     18.15497884	     40.68497029	     85.59688668	      2.05239538	    -15.51767088	     26.83573075	     71.79229464	     91.84708772
